<svg xmlns="http://www.w3.org/2000/svg" viewBox="0 0 128 128" width="128" height="128">
  <defs>
    <linearGradient id="bg" x1="0" y1="0" x2="1" y2="1">
      <stop offset="0" stop-color="#6d5efc"/>
      <stop offset="1" stop-color="#9d7bff"/>
    </linearGradient>
  </defs>
  <rect width="128" height="128" rx="28" fill="#0a0b0f"/>
  <rect x="14" y="14" width="100" height="100" rx="22" fill="url(#bg)" opacity="0.16"/>
  <!-- ghost body -->
  <path fill="url(#bg)" d="M64 26c-19 0-34 15-34 34v34c0 3 3.4 4.8 6 3.2l7-4.3c1.7-1 3.8-1 5.5 0l7.5 4.6c1.7 1 3.8 1 5.5 0l7.5-4.6c1.7-1 3.8-1 5.5 0l7 4.3c2.6 1.6 6-.2 6-3.2V60c0-19-15-34-34-34z"/>
  <!-- eyes -->
  <circle cx="52" cy="58" r="6.5" fill="#0a0b0f"/>
  <circle cx="76" cy="58" r="6.5" fill="#0a0b0f"/>
  <!-- tab notch -->
  <rect x="46" y="20" width="36" height="12" rx="4" fill="url(#bg)"/>
</svg>
